# xmcd
#
# Track frame offsets: 
#        150
#        15942
#        28052
#        42627
#        59995
#        79132
#        92235
#        108380
#        123557
#        140252
#
# Disc length: 2109 seconds
#
# Revision: 4
# Processed by: cddbd v1.5.2PL0 Copyright (c) Steve Scherf et al.
# Submitted via: ExactAudioCopy v1.3
#
DISCID=8a083b0a
DTITLE=The Judds - Greatest Hits
DYEAR=1988
DGENRE=Country
TTITLE0=Why Not Me
TTITLE1=Rockin' With the Rhythm of the Rain
TTITLE2=Mama He's Crazy
TTITLE3=Give a Little Love
TTITLE4=Grandpa (Tell Me 'Bout the Good Old Days)
TTITLE5=Girls Night Out
TTITLE6=Change of Heart
TTITLE7=Have Mercy
TTITLE8=Cry Myself to Sleep
TTITLE9=Love is Alive
EXTD=
EXTT0=
EXTT1=
EXTT2=
EXTT3=
EXTT4=
EXTT5=
EXTT6=
EXTT7=
EXTT8=
EXTT9=
PLAYORDER=
